# xmcd CD database file
#
# Track frame offsets:
#	150
#	18918
#	35369
#	50701
#	69492
#	95137
#
# Disc length: 1511 seconds
#
# Revision: 0
# Processed by: cddbd v1.5.1PL0 Copyright (c) Steve Scherf et al.
# Submitted via: CDex 1.51
#
DISCID=4c05e506
DTITLE=GO-BANG'S - ピグミー・ピンキー
DYEAR=1988
DGENRE=Japanese Pop
TTITLE0=私はパラダイス
TTITLE1=かっこイイダーリン
TTITLE2=ロリポップ・ロリータ・ロンリーディ
TTITLE3=ノーメイクの悲劇
TTITLE4=雪の降らないMerry X'mas
TTITLE5=ビバ！ガールズ
EXTD=YEAR: 1988
EXTT0=
EXTT1=
EXTT2=
EXTT3=
EXTT4=
EXTT5=
PLAYORDER=
